<svg width="17" height="17" viewBox="0 0 17 17" fill="none" xmlns="http://www.w3.org/2000/svg">
<path d="M6.76667 11.2833C5.55556 11.2833 4.52222 10.8556 3.66667 10C2.81111 9.14444 2.38333 8.11111 2.38333 6.9C2.38333 5.68889 2.81111 4.65556 3.66667 3.8C4.52222 2.94444 5.55556 2.51667 6.76667 2.51667C7.97778 2.51667 9.01111 2.94444 9.86667 3.8C10.7222 4.65556 11.15 5.68889 11.15 6.9C11.15 7.36667 11.0889 7.79444 10.9667 8.18333C10.8556 8.56111 10.7 8.90556 10.5 9.21667L13.9333 12.6667C14.1333 12.8778 14.2333 13.1111 14.2333 13.3667C14.2333 13.6111 14.1278 13.8333 13.9167 14.0333C13.7167 14.2333 13.4833 14.3333 13.2167 14.3333C12.9611 14.3333 12.7333 14.2333 12.5333 14.0333L9.11667 10.6333C8.79445 10.8333 8.43333 10.9944 8.03333 11.1167C7.64444 11.2278 7.22222 11.2833 6.76667 11.2833ZM6.76667 9.31667C7.44444 9.31667 8.01667 9.08333 8.48333 8.61667C8.95 8.15 9.18333 7.57778 9.18333 6.9C9.18333 6.22222 8.95 5.65 8.48333 5.18333C8.01667 4.71667 7.44444 4.48333 6.76667 4.48333C6.08889 4.48333 5.51667 4.71667 5.05 5.18333C4.58333 5.65 4.35 6.22222 4.35 6.9C4.35 7.57778 4.58333 8.15 5.05 8.61667C5.51667 9.08333 6.08889 9.31667 6.76667 9.31667Z" fill="#5E6C84"/>
</svg>
